# This file uses centimeters as units for non-parametric coordinates.

mtllib altzemin.mtl
g default
v -9.914393 0.215840 -9.795477
v 10.085607 0.215840 -9.795477
v 10.085607 0.215840 10.204523
v -9.914393 0.215840 10.204523
vt 0.000000 0.000000
vt 1.000000 0.000000
vt 1.000000 1.000000
vt 0.000000 1.000000
vn 0.000000 -1.000000 0.000000
vn 0.000000 -1.000000 0.000000
vn 0.000000 -1.000000 0.000000
vn 0.000000 -1.000000 0.000000
s 1
g pasted__pasted__polySurface2 pasted__pasted__pCube1 pasted__group group1
usemtl pasted__pasted__lambert2SG
f 1/1/1 2/2/2 4/4/3
f 4/4/3 2/2/2 3/3/4
