# This file uses centimeters as units for non-parametric coordinates.

mtllib wall.mtl
g wall:default1
v -9.914391 0.215840 10.220648
v 10.085609 0.215840 10.220648
v -9.914393 8.215839 10.220648
v 10.085607 8.215839 10.220648
v -9.914393 8.215839 -9.779352
v 10.085607 8.215839 -9.779352
v -9.914391 0.215840 -9.779352
v 10.085609 0.215840 -9.779352
v -9.914393 8.215840 -2.579809
v -9.914391 0.215840 -2.579809
v -9.914393 8.215840 1.515086
v -9.914391 0.215840 1.533244
v -9.914392 3.929156 10.220648
v 10.085608 3.929156 10.220648
v -9.914392 3.929155 -9.779352
v -9.914392 3.929156 -2.579809
v -9.914392 3.929156 1.524816
v -9.914392 3.929156 -2.579809
v -9.914392 3.929156 1.524816
v -9.914391 0.215840 -2.579809
v -9.914391 0.215840 1.533244
vt 0.000000 1.000000
vt 0.000000 0.000000
vt 1.000000 1.000000
vt 0.000000 1.000000
vt 0.000000 0.000000
vt 1.000000 0.000000
vt 1.000000 0.500000
vt 1.000000 1.000000
vt 1.000000 0.000000
vt 1.000000 0.500000
vt 0.000000 0.000000
vt 0.000000 1.000000
vt 1.000000 1.000000
vt 0.000000 0.000000
vt 0.000000 0.000000
vt 0.000000 0.000000
vt 0.000000 0.000000
vt 1.000000 0.000000
vt 0.000000 0.000000
vt 0.000000 1.000000
vt 0.000000 0.000000
vt 1.000000 0.000000
vt 1.000000 1.000000
vt 0.000000 1.000000
vt 0.000000 1.000000
vt 0.000000 1.000000
vt 0.000000 0.000000
vt 1.000000 0.000000
vt 1.000000 1.000000
vt 0.000000 1.000000
vt 1.000000 1.000000
vt 0.000000 1.000000
vt 1.000000 0.000000
vt 1.000000 1.000000
vt 0.000000 1.000000
vt 0.000000 0.000000
vt 1.000000 0.000000
vt 1.000000 1.000000
vt 0.000000 1.000000
vt 1.000000 0.000000
vt 1.000000 1.000000
vt 0.000000 1.000000
vt 0.000000 0.000000
vt 1.000000 0.000000
vt 1.000000 0.000000
vt 1.000000 1.000000
vt 0.000000 0.000000
vt 1.000000 0.000000
vt 1.000000 1.000000
vt 0.000000 1.000000
vt 1.000000 0.000000
vt 1.000000 1.000000
vt 1.000000 0.000000
vt 1.000000 1.000000
vn 0.000000 0.000000 1.000000
vn 0.000000 0.000000 1.000000
vn 0.000000 0.000000 1.000000
vn 0.000000 0.000000 1.000000
vn 0.000000 0.000000 -1.000000
vn 0.000000 0.000000 -1.000000
vn 0.000000 0.000000 -1.000000
vn 0.000000 0.000000 -1.000000
vn 0.000000 0.000000 -1.000000
vn 1.000000 0.000000 0.000000
vn 1.000000 0.000000 0.000000
vn 1.000000 0.000000 0.000000
vn 1.000000 0.000000 0.000000
vn 1.000000 0.000000 0.000000
vn -1.000000 0.000000 0.000000
vn -1.000000 0.000000 0.000000
vn -1.000000 0.000000 0.000000
vn -1.000000 0.000000 0.000000
vn -1.000000 0.000000 0.000000
vn -1.000000 0.000000 0.000000
vn -1.000000 0.000000 0.000000
vn -1.000000 0.000000 0.000000
vn -1.000000 0.000000 0.000000
vn -1.000000 0.000000 0.000000
vn -1.000000 0.000000 0.000000
vn -1.000000 0.000000 0.000000
vn 0.000000 0.000000 1.000000
vn 0.000000 0.000000 1.000000
vn 0.000000 0.000000 1.000000
vn 0.000000 0.000000 1.000000
vn -1.000000 0.000000 0.000000
vn -1.000000 0.000000 0.000000
vn -1.000000 0.000000 0.000000
vn -1.000000 0.000000 0.000000
vn -1.000000 0.000000 0.000000
vn -1.000000 0.000000 0.000000
vn -1.000000 0.000000 0.000000
vn -1.000000 0.000000 0.000000
vn -1.000000 0.000000 0.000000
vn -1.000000 0.000000 0.000000
vn -1.000000 0.000000 0.000000
vn -1.000000 0.000000 0.000000
vn 0.000000 0.000000 0.000000
vn 0.000000 0.000000 0.000000
vn 0.000000 0.000000 0.000000
vn 0.000000 0.000000 0.000000
vn 0.000000 0.000000 0.000000
vn 0.000000 0.000000 0.000000
vn 0.000000 0.000000 0.000000
vn 0.000000 0.000000 0.000000
vn 0.000000 0.000000 0.000000
vn 0.000000 0.000000 0.000000
vn 0.000000 0.000000 0.000000
vn 0.000000 0.000000 0.000000
s 1
g wall:pCube1 wall:polySurface2 wall:polySurface1
usemtl wall:lambert3SG
f 1/27/1 2/28/2 13/30/3
f 13/30/3 2/28/2 14/29/4
s 2
f 5/5/5 6/6/6 15/20/7
f 6/6/6 8/7/8 15/20/7
f 8/7/8 7/8/9 15/20/7
s 3
f 2/2/10 8/9/11 14/32/12
f 8/9/11 6/10/13 14/32/12
f 6/10/13 4/31/14 14/32/12
s 4
f 7/11/15 10/33/16 15/35/17
f 15/35/17 10/33/16 16/34/18
s 5
f 9/36/19 16/37/20 11/39/21
f 11/39/21 16/37/20 17/38/22
s 6
f 11/15/23 17/40/24 3/42/25
f 3/42/25 17/40/24 13/41/26
s 7
f 13/43/27 14/18/28 3/4/29
f 3/4/29 14/18/28 4/3/30
s 8
f 15/19/31 16/44/32 5/12/33
f 5/12/33 16/44/32 9/13/34
s 9
f 17/45/35 12/46/36 13/17/37
f 13/17/37 12/46/36 1/1/38
s 10
f 19/50/39 17/47/40 18/49/41
f 17/47/40 16/48/42 18/49/41
s 11
f 18/24/43 16/21/44 20/52/45
f 16/21/44 10/51/46 20/52/45
s 12
f 20/25/47 10/14/48 21/54/49
f 10/14/48 12/53/50 21/54/49
s 13
f 21/26/51 12/16/52 19/23/53
f 12/16/52 17/22/54 19/23/53
