# This file uses centimeters as units for non-parametric coordinates.

mtllib cati.mtl
g default
v -12.964847 7.903088 -12.119589
v -12.597126 7.903088 12.865930
v 12.388391 7.903088 12.498208
v 12.020669 7.903088 -12.487310
v -0.288228 16.050417 0.189310
vt 0.051664 0.651669
vt 0.223331 0.523334
vt 0.500000 0.500000
vt 0.756252 0.535000
vt 0.995003 0.622502
vt 0.500000 1.000000
vn -0.546161 0.837642 0.008038
vn -0.546161 0.837641 0.008038
vn -0.546161 0.837642 0.008038
vn 0.008038 0.837641 0.546161
vn 0.008038 0.837641 0.546161
vn 0.008038 0.837641 0.546161
vn 0.546161 0.837641 -0.008038
vn 0.546161 0.837641 -0.008038
vn 0.546161 0.837641 -0.008038
vn -0.008038 0.837641 -0.546161
vn -0.008038 0.837641 -0.546161
vn -0.008038 0.837641 -0.546161
s off
g pPyramid1
usemtl initialShadingGroup
f 1/1/1 2/2/2 5/6/3
f 2/2/4 3/3/5 5/6/6
f 3/3/7 4/4/8 5/6/9
f 4/4/10 1/5/11 5/6/12
